<svg version="1.1" viewBox="0.0 0.0 205.0236220472441 100.0" fill="none" stroke="none" stroke-linecap="square" stroke-miterlimit="10" xmlns:xlink="http://www.w3.org/1999/xlink" xmlns="http://www.w3.org/2000/svg"><clipPath id="p.0"><path d="m0 0l205.02362 0l0 100.0l-205.02362 0l0 -100.0z" clip-rule="nonzero"/></clipPath><g clip-path="url(#p.0)"><path fill="#000000" fill-opacity="0.0" d="m0 0l205.02362 0l0 100.0l-205.02362 0z" fill-rule="evenodd"/><defs><linearGradient id="p.1" gradientUnits="userSpaceOnUse" gradientTransform="matrix(4.195986083461005 0.0 0.0 4.195986083461005 0.0 0.0)" spreadMethod="pad" x1="30.454677168375962" y1="19.22128180763737" x2="34.65066325183697" y2="19.22128180763737"><stop offset="0.0" stop-color="#a1d0b7"/><stop offset="1.0" stop-color="#97d0bf"/></linearGradient></defs><path fill="url(#p.1)" d="m127.7874 7.266404l17.606308 0l0 73.385826l-17.606308 0z" fill-rule="evenodd"/><defs><linearGradient id="p.2" gradientUnits="userSpaceOnUse" gradientTransform="matrix(4.195986083461005 0.0 0.0 4.195986083461005 0.0 0.0)" spreadMethod="pad" x1="36.25824885626374" y1="19.224409406089567" x2="40.45423493972474" y2="19.224409406089567"><stop offset="0.0" stop-color="#97d0bf"/><stop offset="1.0" stop-color="#92d0d0"/></linearGradient></defs><path fill="url(#p.2)" d="m152.13911 13.137795l17.606293 0l0 67.52756l-17.606293 0z" fill-rule="evenodd"/><defs><linearGradient id="p.3" gradientUnits="userSpaceOnUse" gradientTransform="matrix(4.195986083461005 0.0 0.0 4.195986083461005 0.0 0.0)" spreadMethod="pad" x1="42.061820544151516" y1="19.224409406089567" x2="46.257806627612524" y2="19.224409406089567"><stop offset="0.0" stop-color="#92d0d0"/><stop offset="1.0" stop-color="#88bbd0"/></linearGradient></defs><path fill="url(#p.3)" d="m176.49081 2.3976378l17.606293 0l0 78.267715l-17.606293 0z" fill-rule="evenodd"/><defs><linearGradient id="p.4" gradientUnits="userSpaceOnUse" gradientTransform="matrix(0.0 7.5232337119115185 -7.5232337119115185 0.0 0.0 0.0)" spreadMethod="pad" x1="11.050282558162573" y1="-8.565857680053293" x2="11.050365007255133" y2="-16.089091391513023"><stop offset="0.0" stop-color="#b6d7a8"/><stop offset="1.0" stop-color="#a1d0b7"/></linearGradient></defs><path fill="url(#p.4)" d="m92.74278 26.692913l0 0c15.629227 0 28.29921 12.634735 28.29921 28.220474l0 0c0 7.4845314 -2.981514 14.662518 -8.288643 19.954884c-5.3071365 5.292366 -12.50515 8.265587 -20.010567 8.265587l0 0c-15.629227 0 -28.29921 -12.634735 -28.29921 -28.22047l0 0c0 -15.585739 12.669983 -28.220474 28.29921 -28.220474zm0 13.92511l0 0c-7.9385986 0 -14.3741 6.4002533 -14.3741 14.295364c0 7.895111 6.435501 14.295361 14.3741 14.295361c7.9385986 0 14.3741 -6.4002495 14.3741 -14.295361l0 0c0 -7.895111 -6.435501 -14.295364 -14.3741 -14.295364z" fill-rule="evenodd"/><defs><linearGradient id="p.5" gradientUnits="userSpaceOnUse" gradientTransform="matrix(3.952473560201825 0.0 0.0 3.952473560201825 0.0 0.0)" spreadMethod="pad" x1="1.1787030526475537" y1="20.369316865865386" x2="5.131176612849378" y2="20.369316865865386"><stop offset="0.0" stop-color="#d9ead3"/><stop offset="1.0" stop-color="#d0e6c9"/></linearGradient></defs><path fill="url(#p.5)" d="m4.6587925 13.296588l15.622047 0l0 67.2126l-15.622047 0z" fill-rule="evenodd"/><defs><linearGradient id="p.6" gradientUnits="userSpaceOnUse" gradientTransform="matrix(4.195986083461005 0.0 0.0 4.195986083461005 0.0 0.0)" spreadMethod="pad" x1="4.22225791045942" y1="6.231427156147665" x2="8.418243993920425" y2="6.231427156147665"><stop offset="0.0" stop-color="#d0e6c9"/><stop offset="1.0" stop-color="#c4deb9"/></linearGradient></defs><path fill="url(#p.6)" d="m17.716536 13.296588l17.606298 0l0 12.850394l-17.606298 0z" fill-rule="evenodd"/><defs><linearGradient id="p.7" gradientUnits="userSpaceOnUse" gradientTransform="matrix(4.195986083461005 0.0 0.0 4.195986083461005 0.0 0.0)" spreadMethod="pad" x1="4.22225791045942" y1="14.717852796325879" x2="8.418243993920425" y2="14.717852796325879"><stop offset="0.0" stop-color="#d0e6c9"/><stop offset="1.0" stop-color="#c4deb9"/></linearGradient></defs><path fill="url(#p.7)" d="m17.716536 48.90551l17.606298 0l0 12.850395l-17.606298 0z" fill-rule="evenodd"/><defs><linearGradient id="p.8" gradientUnits="userSpaceOnUse" gradientTransform="matrix(0.0 5.273666105947418 -5.273666105947418 0.0 0.0 0.0)" spreadMethod="pad" x1="11.706757987346593" y1="-6.610270941463401" x2="11.70681533880225" y2="-11.88393704709897"><stop offset="0.0" stop-color="#c4deb9"/><stop offset="1.0" stop-color="#b6d7a8"/></linearGradient></defs><path fill="url(#p.8)" d="m34.860893 13.296588l0 0c15.358513 0 27.809483 10.842395 27.811024 24.21804c0.0015411377 13.3756485 -12.44693 24.220219 -27.805443 24.222904l-0.0029563904 -12.829586c8.273506 -0.0011024475 14.979538 -5.101261 14.978813 -11.391884c-7.247925E-4 -6.2906246 -6.7079315 -11.389891 -14.981438 -11.389891z" fill-rule="evenodd"/></g></svg>