<svg version="1.1" viewBox="0.0 0.0 225.70078740157481 100.0" fill="none" stroke="none" stroke-linecap="square" stroke-miterlimit="10" xmlns:xlink="http://www.w3.org/1999/xlink" xmlns="http://www.w3.org/2000/svg"><clipPath id="p.0"><path d="m0 0l225.70079 0l0 100.0l-225.70079 0l0 -100.0z" clip-rule="nonzero"/></clipPath><g clip-path="url(#p.0)"><path fill="#000000" fill-opacity="0.0" d="m0 0l225.70079 0l0 100.0l-225.70079 0z" fill-rule="evenodd"/><path fill="#000000" fill-opacity="0.0" d="m-9.813648 -15.891076l75.33858 0l0 178.04726l-75.33858 0z" fill-rule="evenodd"/><path fill="#b6d7a8" d="m7.155102 85.26892l0 -67.203125l29.09375 0q9.015625 0 15.546875 2.9375q6.53125 2.921875 10.078125 8.390625q3.5468712 5.468752 3.5468712 13.062502q0 7.484375 -3.5468712 12.953125q-3.546875 5.46875 -10.078125 8.40625q-6.53125 2.921875 -15.546875 2.921875l-20.453125 0l6.90625 -7.0l0 25.53125l-15.546875 0zm15.546875 -23.8125l-6.90625 -7.390625l19.578125 0q7.203125 0 10.75 -3.0625q3.5625 -3.078125 3.5625 -8.546875q0 -5.578125 -3.5625 -8.640625q-3.546875 -3.078127 -10.75 -3.078127l-19.578125 0l6.90625 -7.390625l0 38.109375z" fill-rule="nonzero"/><path fill="#97d0bf" d="m133.00262 12.479003l17.606293 0l0 73.385826l-17.606293 0z" fill-rule="evenodd"/><path fill="#92d0d0" d="m164.65092 18.347769l17.606293 0l0 67.52756l-17.606293 0z" fill-rule="evenodd"/><path fill="#88bbd0" d="m196.29921 7.586614l17.606308 0l0 78.267715l-17.606308 0z" fill-rule="evenodd"/><path fill="#000000" fill-opacity="0.0" d="m56.850395 -15.891076l62.110237 0l0 161.41733l-62.110237 0z" fill-rule="evenodd"/><path fill="#a1d0b7" d="m97.33477 86.034546q-8.25 0 -14.640625 -3.453125q-6.375 -3.453125 -10.078125 -9.453125q-3.6875 -6.0 -3.6875 -13.6875q0 -7.765625 3.6875 -13.765625q3.703125 -6.0 10.078125 -9.40625q6.390625 -3.421875 14.640625 -3.421875q8.15625 0 14.59375 3.421875q6.4375 3.40625 10.078125 9.359375q3.65625 5.9375 3.65625 13.8125q0 7.6875 -3.65625 13.6875q-3.640625 6.0 -10.078125 9.453125q-6.4375 3.453125 -14.59375 3.453125zm0 -12.28125q3.75 0 6.71875 -1.71875q2.984375 -1.734375 4.703125 -4.953125q1.734375 -3.21875 1.734375 -7.640625q0 -4.515625 -1.734375 -7.671875q-1.71875 -3.171875 -4.703125 -4.890625q-2.96875 -1.734375 -6.71875 -1.734375q-3.734375 0 -6.71875 1.734375q-2.96875 1.71875 -4.75 4.890625q-1.78125 3.15625 -1.78125 7.671875q0 4.421875 1.78125 7.640625q1.78125 3.21875 4.75 4.953125q2.984375 1.71875 6.71875 1.71875z" fill-rule="nonzero"/></g></svg>