<svg version="1.1" viewBox="0.0 0.0 531.2493438320209 445.0" fill="none" stroke="none" stroke-linecap="square" stroke-miterlimit="10" xmlns:xlink="http://www.w3.org/1999/xlink" xmlns="http://www.w3.org/2000/svg"><clipPath id="p.0"><path d="m0 0l531.2493 0l0 445.0l-531.2493 0l0 -445.0z" clip-rule="nonzero"/></clipPath><g clip-path="url(#p.0)"><path fill="#000000" fill-opacity="0.0" d="m0 0l531.2493 0l0 445.0l-531.2493 0z" fill-rule="evenodd"/><defs><linearGradient id="p.1" gradientUnits="userSpaceOnUse" gradientTransform="matrix(10.751304794007613 0.0 0.0 10.751304794007613 0.0 0.0)" spreadMethod="pad" x1="-1.729387874273555E-4" y1="41.41449731555889" x2="10.751131855220185" y2="41.41449731555889"><stop offset="0.0" stop-color="#b6d7a8"/><stop offset="1.0" stop-color="#97d0bf"/></linearGradient></defs><path fill="url(#p.1)" d="m-0.0018593175 47.013546l0 0c0 -10.64003 8.625448 -19.265478 19.265478 -19.265478l77.05959 0l0 0c5.1095276 0 10.009773 2.029749 13.622749 5.642725c3.6129837 3.61298 5.6427307 8.513229 5.6427307 13.622753l0 378.98087c0 10.640015 -8.62545 19.265472 -19.26548 19.265472l-77.05959 0c-10.64003 0 -19.265478 -8.625458 -19.265478 -19.265472z" fill-rule="evenodd"/><defs><linearGradient id="p.2" gradientUnits="userSpaceOnUse" gradientTransform="matrix(10.751304626932601 0.0 0.0 10.751304626932601 0.0 0.0)" spreadMethod="pad" x1="19.332347169797895" y1="41.390222689978394" x2="30.083651796730496" y2="41.390222689978394"><stop offset="0.0" stop-color="#97d0bf"/><stop offset="1.0" stop-color="#92d0d0"/></linearGradient></defs><path fill="url(#p.2)" d="m207.84795 80.075386l0 0c0 -10.64003 8.625458 -19.26548 19.265488 -19.26548l77.0596 0l0 0c5.1095276 0 10.009766 2.0297508 13.622742 5.6427307c3.612976 3.612976 5.6427307 8.513222 5.6427307 13.622749l0 345.65802c0 10.640045 -8.625458 19.265472 -19.265472 19.265472l-77.0596 0c-10.64003 0 -19.265488 -8.625427 -19.265488 -19.265472z" fill-rule="evenodd"/><defs><linearGradient id="p.3" gradientUnits="userSpaceOnUse" gradientTransform="matrix(10.751304626932601 0.0 0.0 10.751304626932601 0.0 0.0)" spreadMethod="pad" x1="38.66486599061908" y1="41.41456661954849" x2="49.41617061755168" y2="41.41456661954849"><stop offset="0.0" stop-color="#92d0d0"/><stop offset="1.0" stop-color="#88bbd0"/></linearGradient></defs><path fill="url(#p.3)" d="m415.69775 19.266247l0 0c0 -10.64003 8.625458 -19.265478 19.265503 -19.265478l77.05957 0l0 0c5.109558 0 10.009766 2.0297496 13.622742 5.642728c3.612976 3.6129775 5.642761 8.513227 5.642761 13.622749l0 406.7289c0 10.640015 -8.625488 19.265472 -19.265503 19.265472l-77.05957 0c-10.640045 0 -19.265503 -8.625458 -19.265503 -19.265472z" fill-rule="evenodd"/></g></svg>